<svg width="70" height="70" viewBox="0 0 70 70" fill="none" xmlns="http://www.w3.org/2000/svg"
  xmlns:xlink="http://www.w3.org/1999/xlink">
  <svg width="128" height="128" viewBox="0 0 128 128" x="-29" y="-29">
    <g filter="url(#filter1_i_31_700)">
      <path
        d="M76.481 59.9628C77.1285 55.6336 73.8326 53.3065 69.3256 51.7541L70.7877 45.8898L67.2179 45.0003L65.7947 50.7102C64.8562 50.4761 63.8924 50.2556 62.9346 50.0369L64.3682 44.2894L60.8007 43.3999L59.3378 49.2622C58.5612 49.0854 57.7984 48.9107 57.0584 48.7265L57.0625 48.7081L52.1398 47.4788L51.1902 51.2915C51.1902 51.2915 53.8386 51.8986 53.7828 51.936C55.2283 52.2968 55.4898 53.2537 55.4463 54.0122L53.7809 60.6929C53.8804 60.7182 54.0095 60.7548 54.152 60.812C54.0329 60.7825 53.9062 60.7502 53.7747 60.7187L51.4403 70.0775C51.2636 70.5167 50.8152 71.1758 49.8045 70.9255C49.8403 70.9773 47.21 70.278 47.21 70.278L45.4377 74.3642L50.0831 75.5223C50.9473 75.739 51.7942 75.9657 52.6282 76.179L51.151 82.1105L54.7167 83L56.1795 77.1314C57.1536 77.3959 58.0989 77.6398 59.0244 77.8697L57.5664 83.7106L61.1363 84.6001L62.6134 78.6797C68.7005 79.8317 73.2776 79.3673 75.2042 73.8614C76.7566 69.4286 75.1269 66.8717 71.9245 65.2043C74.257 64.6664 76.0138 63.1323 76.4823 59.9632L76.4812 59.9624L76.481 59.9628ZM68.325 71.3996C67.2218 75.8325 59.7582 73.4362 57.3384 72.8353L59.2987 64.9771C61.7183 65.5812 69.4779 66.7766 68.3251 71.3996H68.325ZM69.429 59.8985C68.4226 63.9307 62.2106 61.8822 60.1955 61.3798L61.9727 54.2529C63.9878 54.7552 70.4773 55.6927 69.4293 59.8985H69.429Z"
        fill="url(#paint3_linear_31_700)" />
    </g>
    <g style="mix-blend-mode:color-dodge" filter="url(#filter2_f_31_700)">
      <path
        d="M76.481 59.9628C77.1285 55.6336 73.8326 53.3065 69.3256 51.7541L70.7877 45.8898L67.2179 45.0003L65.7947 50.7102C64.8562 50.4761 63.8924 50.2556 62.9346 50.0369L64.3682 44.2894L60.8007 43.3999L59.3378 49.2622C58.5612 49.0854 57.7984 48.9107 57.0584 48.7265L57.0625 48.7081L52.1398 47.4788L51.1902 51.2915C51.1902 51.2915 53.8386 51.8986 53.7828 51.936C55.2283 52.2968 55.4898 53.2537 55.4463 54.0122L53.7809 60.6929C53.8804 60.7182 54.0095 60.7548 54.152 60.812C54.0329 60.7825 53.9062 60.7502 53.7747 60.7187L51.4403 70.0775C51.2636 70.5167 50.8152 71.1758 49.8045 70.9255C49.8403 70.9773 47.21 70.278 47.21 70.278L45.4377 74.3642L50.0831 75.5223C50.9473 75.739 51.7942 75.9657 52.6282 76.179L51.151 82.1105L54.7167 83L56.1795 77.1314C57.1536 77.3959 58.0989 77.6398 59.0244 77.8697L57.5664 83.7106L61.1363 84.6001L62.6134 78.6797C68.7005 79.8317 73.2776 79.3673 75.2042 73.8614C76.7566 69.4286 75.1269 66.8717 71.9245 65.2043C74.257 64.6664 76.0138 63.1323 76.4823 59.9632L76.4812 59.9624L76.481 59.9628ZM68.325 71.3996C67.2218 75.8325 59.7582 73.4362 57.3384 72.8353L59.2987 64.9771C61.7183 65.5812 69.4779 66.7766 68.3251 71.3996H68.325ZM69.429 59.8985C68.4226 63.9307 62.2106 61.8822 60.1955 61.3798L61.9727 54.2529C63.9878 54.7552 70.4773 55.6927 69.4293 59.8985H69.429Z"
        fill="#701111" />
    </g>

    <defs>
      <filter id="filter1_i_31_700" x="45.4377" y="43.3999" width="31.1246" height="41.2002"
        filterUnits="userSpaceOnUse" color-interpolation-filters="sRGB">
        <feFlood flood-opacity="0" result="BackgroundImageFix" />
        <feBlend mode="normal" in="SourceGraphic" in2="BackgroundImageFix" result="shape" />
        <feColorMatrix in="SourceAlpha" type="matrix" values="0 0 0 0 0 0 0 0 0 0 0 0 0 0 0 0 0 0 127 0"
          result="hardAlpha" />
        <feOffset dx="0.5" dy="0.5" />
        <feComposite in2="hardAlpha" operator="arithmetic" k2="-1" k3="1" />
        <feColorMatrix type="matrix" values="0 0 0 0 1 0 0 0 0 1 0 0 0 0 1 0 0 0 0.52 0" />
        <feBlend mode="normal" in2="shape" result="effect1_innerShadow_31_700" />
      </filter>
      <filter id="filter2_f_31_700" x="37.4377" y="35.3999" width="47.1246" height="57.2002"
        filterUnits="userSpaceOnUse" color-interpolation-filters="sRGB">
        <feFlood flood-opacity="0" result="BackgroundImageFix" />
        <feBlend mode="normal" in="SourceGraphic" in2="BackgroundImageFix" result="shape" />
        <feGaussianBlur stdDeviation="4" result="effect1_foregroundBlur_31_700" />
      </filter>

      <linearGradient id="paint3_linear_31_700" x1="61" y1="43.3999" x2="61" y2="84.6001"
        gradientUnits="userSpaceOnUse">
        <stop stop-color="#F32CB6" />
        <stop offset="0.432292" stop-color="#A4FFB8" />
        <stop offset="1" stop-color="#0569FF" />
      </linearGradient>
    </defs>
  </svg>
</svg>